<svg xmlns="http://www.w3.org/2000/svg" width="1200" height="152" viewBox="0 0 1200 152" role="img" aria-labelledby="title desc">
<title id="title">Animated experience wordmarks</title>
<desc id="desc">A subtle horizontal loop featuring Tec de Monterrey, HEINEKEN, CEMEX, FEMSA, Santander, IEEE and Cruz Roja.</desc>
<defs>
  <linearGradient id="fade"><stop stop-color="#0b0e14" stop-opacity="1"/><stop offset=".12" stop-color="#0b0e14" stop-opacity="0"/><stop offset=".88" stop-color="#0b0e14" stop-opacity="0"/><stop offset="1" stop-color="#0b0e14" stop-opacity="1"/></linearGradient>
</defs>
<style>
  .track{animation:scroll 28s linear infinite}
  .word{animation:glow 5s ease-in-out infinite}
  .word:nth-child(2){animation-delay:-1s}.word:nth-child(3){animation-delay:-2s}.word:nth-child(4){animation-delay:-3s}
  @keyframes scroll{to{transform:translateX(-1040px)}}
  @keyframes glow{50%{opacity:.62}}
  @media(prefers-reduced-motion:reduce){*,*::before,*::after{animation:none!important}}
</style>
<rect width="1200" height="152" rx="19" fill="#0b0e14"/>
<rect x=".5" y=".5" width="1199" height="151" rx="18.5" fill="none" stroke="#d3ddf2" stroke-opacity=".12"/>
<text x="29" y="30" fill="#77839a" font-family="monospace" font-size="10" letter-spacing="2">EXPERIENCE · RESEARCH · BUILDING IN PUBLIC</text>
<clipPath id="window"><rect x="15" y="42" width="1170" height="92" rx="8"/></clipPath>
<g clip-path="url(#window)">
  <g class="track">
    <g class="word" transform="translate(28 0)">
      <circle cx="23" cy="88" r="17" fill="#e94a27" fill-opacity=".18" stroke="#e94a27" stroke-opacity=".55"/><text x="23" y="92" text-anchor="middle" fill="#f28a6d" font-family="Arial,sans-serif" font-size="10" font-weight="700">TEC</text>
      <text x="49" y="94" fill="#e5eaf4" font-family="Arial,sans-serif" font-size="15" font-weight="700" letter-spacing=".6">TEC DE MONTERREY</text>
    </g>
    <g class="word" transform="translate(214 0)">
      <circle cx="23" cy="88" r="17" fill="#28b765" fill-opacity=".14" stroke="#28b765" stroke-opacity=".5"/><path d="M16 92l7-12 7 12z" fill="none" stroke="#5dd58c" stroke-width="1.7"/>
      <text x="49" y="94" fill="#63d48d" font-family="Arial,sans-serif" font-size="17" font-weight="800" letter-spacing="1">HEINEKEN</text>
    </g>
    <g class="word" transform="translate(398 0)">
      <circle cx="23" cy="88" r="17" fill="#4d89ff" fill-opacity=".16" stroke="#4d89ff" stroke-opacity=".54"/><path d="M15 83h16M15 88h12M15 93h9" stroke="#8eb1ff" stroke-width="2"/>
      <text x="49" y="94" fill="#8eb1ff" font-family="Arial,sans-serif" font-size="18" font-weight="800" letter-spacing="1.1">CEMEX</text>
    </g>
    <g class="word" transform="translate(560 0)">
      <circle cx="23" cy="88" r="17" fill="#d5aa63" fill-opacity=".16" stroke="#d5aa63" stroke-opacity=".52"/><path d="M17 81h12v14H17z" fill="none" stroke="#e4c88e" stroke-width="1.5"/>
      <text x="49" y="94" fill="#e4c88e" font-family="Arial,sans-serif" font-size="18" font-weight="800" letter-spacing="1.5">FEMSA</text>
    </g>
    <g class="word" transform="translate(713 0)">
      <circle cx="23" cy="88" r="17" fill="#e45a6a" fill-opacity=".15" stroke="#e45a6a" stroke-opacity=".52"/><path d="M23 77c-7 9-9 13 0 18 9-5 7-9 0-18z" fill="none" stroke="#f58a94" stroke-width="1.6"/>
      <text x="49" y="94" fill="#f08a93" font-family="Arial,sans-serif" font-size="18" font-weight="700">Santander</text>
    </g>
    <g class="word" transform="translate(883 0)">
      <circle cx="23" cy="88" r="17" fill="#6f9de5" fill-opacity=".15" stroke="#6f9de5" stroke-opacity=".52"/><path d="M14 83h18M14 88h18M14 93h18" stroke="#9bbafa" stroke-width="1.5"/>
      <text x="49" y="94" fill="#abc3f1" font-family="Arial,sans-serif" font-size="18" font-weight="800" letter-spacing="1.4">IEEE</text>
    </g>
    <g class="word" transform="translate(1030 0)">
      <circle cx="23" cy="88" r="17" fill="#ee4858" fill-opacity=".14" stroke="#ee4858" stroke-opacity=".58"/><path d="M21 78h4v7h7v5h-7v7h-4v-7h-7v-5h7z" fill="#fa6b77"/>
      <text x="49" y="94" fill="#ff7781" font-family="Arial,sans-serif" font-size="16" font-weight="700">CRUZ ROJA</text>
    </g>
    <g transform="translate(1040 0)">
      <g class="word" transform="translate(28 0)">
        <circle cx="23" cy="88" r="17" fill="#e94a27" fill-opacity=".18" stroke="#e94a27" stroke-opacity=".55"/><text x="23" y="92" text-anchor="middle" fill="#f28a6d" font-family="Arial,sans-serif" font-size="10" font-weight="700">TEC</text><text x="49" y="94" fill="#e5eaf4" font-family="Arial,sans-serif" font-size="15" font-weight="700" letter-spacing=".6">TEC DE MONTERREY</text>
      </g>
      <g class="word" transform="translate(214 0)">
        <circle cx="23" cy="88" r="17" fill="#28b765" fill-opacity=".14" stroke="#28b765" stroke-opacity=".5"/><path d="M16 92l7-12 7 12z" fill="none" stroke="#5dd58c" stroke-width="1.7"/><text x="49" y="94" fill="#63d48d" font-family="Arial,sans-serif" font-size="17" font-weight="800" letter-spacing="1">HEINEKEN</text>
      </g>
      <g class="word" transform="translate(398 0)">
        <circle cx="23" cy="88" r="17" fill="#4d89ff" fill-opacity=".16" stroke="#4d89ff" stroke-opacity=".54"/><path d="M15 83h16M15 88h12M15 93h9" stroke="#8eb1ff" stroke-width="2"/><text x="49" y="94" fill="#8eb1ff" font-family="Arial,sans-serif" font-size="18" font-weight="800" letter-spacing="1.1">CEMEX</text>
      </g>
      <g class="word" transform="translate(560 0)">
        <circle cx="23" cy="88" r="17" fill="#d5aa63" fill-opacity=".16" stroke="#d5aa63" stroke-opacity=".52"/><path d="M17 81h12v14H17z" fill="none" stroke="#e4c88e" stroke-width="1.5"/><text x="49" y="94" fill="#e4c88e" font-family="Arial,sans-serif" font-size="18" font-weight="800" letter-spacing="1.5">FEMSA</text>
      </g>
      <g class="word" transform="translate(713 0)">
        <circle cx="23" cy="88" r="17" fill="#e45a6a" fill-opacity=".15" stroke="#e45a6a" stroke-opacity=".52"/><path d="M23 77c-7 9-9 13 0 18 9-5 7-9 0-18z" fill="none" stroke="#f58a94" stroke-width="1.6"/><text x="49" y="94" fill="#f08a93" font-family="Arial,sans-serif" font-size="18" font-weight="700">Santander</text>
      </g>
      <g class="word" transform="translate(883 0)">
        <circle cx="23" cy="88" r="17" fill="#6f9de5" fill-opacity=".15" stroke="#6f9de5" stroke-opacity=".52"/><path d="M14 83h18M14 88h18M14 93h18" stroke="#9bbafa" stroke-width="1.5"/><text x="49" y="94" fill="#abc3f1" font-family="Arial,sans-serif" font-size="18" font-weight="800" letter-spacing="1.4">IEEE</text>
      </g>
      <g class="word" transform="translate(1030 0)">
        <circle cx="23" cy="88" r="17" fill="#ee4858" fill-opacity=".14" stroke="#ee4858" stroke-opacity=".58"/><path d="M21 78h4v7h7v5h-7v7h-4v-7h-7v-5h7z" fill="#fa6b77"/><text x="49" y="94" fill="#ff7781" font-family="Arial,sans-serif" font-size="16" font-weight="700">CRUZ ROJA</text>
      </g>
    </g>
  </g>
</g>
<rect width="1200" height="152" rx="19" fill="url(#fade)" pointer-events="none"/>
</svg>